<?xml version="1.0" standalone="no"?>
<!DOCTYPE svg PUBLIC "-//W3C//DTD SVG 20010904//EN"
 "http://www.w3.org/TR/2001/REC-SVG-20010904/DTD/svg10.dtd">
<svg version="1.0" xmlns="http://www.w3.org/2000/svg"
 width="96.000000pt" height="96.000000pt" viewBox="0 0 96.000000 96.000000"
 preserveAspectRatio="xMidYMid meet">
<metadata>
Created by potrace 1.14, written by Peter Selinger 2001-2017
</metadata>
<g transform="translate(0.000000,96.000000) scale(0.100000,-0.100000)"
fill="#000000" stroke="none">
<path d="M467 954 c-4 -4 -7 -124 -7 -266 0 -252 -1 -260 -22 -289 -21 -28
-21 -32 -7 -57 21 -38 77 -38 98 -1 13 24 13 29 -5 55 -17 26 -19 53 -24 293
-5 250 -10 288 -33 265z"/>
<path d="M647 692 c-49 -78 -127 -220 -127 -230 0 -5 6 -12 13 -15 9 -3 38 37
84 116 82 144 86 154 67 161 -9 3 -22 -8 -37 -32z"/>
<path d="M330 601 c0 -21 63 -133 86 -152 11 -9 15 -8 20 4 3 10 -12 48 -37
92 -42 73 -69 95 -69 56z"/>
<path d="M122 564 c3 -14 202 -138 251 -157 22 -8 33 12 16 29 -21 20 -241
144 -257 144 -7 0 -12 -7 -10 -16z"/>
<path d="M645 484 c-77 -46 -92 -61 -78 -75 15 -15 163 69 163 94 0 25 -17 21
-85 -19z"/>
<path d="M8 379 c-6 -4 -9 -13 -6 -21 5 -11 41 -14 187 -13 175 1 225 9 189
31 -16 10 -354 12 -370 3z"/>
<path d="M581 373 c-9 -6 -12 -15 -8 -19 8 -9 352 -14 375 -6 6 2 12 10 12 18
0 17 11 16 -194 18 -116 1 -174 -2 -185 -11z"/>
<path d="M298 283 c-52 -30 -75 -50 -71 -59 8 -21 16 -18 98 29 45 25 74 48
73 56 -5 25 -21 21 -100 -26z"/>
<path d="M563 315 c-7 -19 -21 -9 126 -94 127 -73 155 -83 149 -55 -2 13 -245
164 -264 164 -2 0 -7 -7 -11 -15z"/>
<path d="M408 272 c-9 -9 -46 -70 -83 -135 -47 -82 -64 -122 -57 -129 6 -6 15
-7 20 -4 13 8 152 250 152 264 0 20 -17 22 -32 4z"/>
<path d="M524 277 c-7 -20 75 -167 92 -167 25 0 22 18 -16 86 -45 82 -67 105
-76 81z"/>
<path d="M465 258 c-3 -8 -5 -55 -3 -104 2 -71 6 -89 18 -89 12 0 15 18 15 99
0 71 -4 101 -12 103 -7 3 -15 -2 -18 -9z"/>
</g>
</svg>
